<?xml version="1.0" encoding="utf-8"?>
<!-- Generator: Adobe Illustrator 19.1.0, SVG Export Plug-In . SVG Version: 6.00 Build 0)  -->
<svg version="1.1" id="Layer_1" xmlns="http://www.w3.org/2000/svg" xmlns:xlink="http://www.w3.org/1999/xlink" x="0px" y="0px"
	 viewBox="-255 347 100 100" style="enable-background:new -255 347 100 100;" xml:space="preserve">
<path d="M-189.3,377.1l2.3-6.6c0.4-1,1.5-1.6,2.6-1.2c1,0.4,1.6,1.5,1.2,2.6l-2.3,6.6c-0.3,0.8-1.1,1.3-1.9,1.3
	c-0.2,0-0.4,0-0.7-0.1C-189.1,379.3-189.6,378.1-189.3,377.1z M-224.5,378.4c0.3,0.8,1.1,1.3,1.9,1.3c0.2,0,0.4,0,0.7-0.1
	c1-0.4,1.6-1.5,1.2-2.6l-2.3-6.5c-0.4-1-1.5-1.6-2.6-1.2c-1,0.4-1.6,1.5-1.2,2.6L-224.5,378.4z M-205,377.1c1.1,0,2-0.9,2-2v-6.8
	c0-1.1-0.9-2-2-2s-2,0.9-2,2v6.8C-207,376.2-206.1,377.1-205,377.1z M-236.9,387.6c0.5,0,0.9-0.2,1.3-0.5c0.8-0.7,1-2,0.2-2.8
	l-4.3-5.1c-0.7-0.8-2-1-2.8-0.2c-0.8,0.7-1,2-0.2,2.8l4.3,5.1C-238,387.3-237.4,387.6-236.9,387.6z M-167.5,378.8
	c-0.8-0.7-2.1-0.6-2.8,0.2l-4.4,5.2c-0.7,0.8-0.6,2.1,0.2,2.8c0.4,0.3,0.8,0.5,1.3,0.5c0.6,0,1.1-0.2,1.5-0.7l4.4-5.2
	C-166.5,380.8-166.6,379.5-167.5,378.8z M-171.8,398.5c0.6,0.7,0.6,1.8,0,2.5c-0.5,0.7-13.3,16-33.2,16s-32.7-15.3-33.2-15.9
	c-0.6-0.7-0.6-1.8,0-2.5c0.5-0.7,13.3-15.9,33.2-15.9S-172.3,397.9-171.8,398.5z M-210.8,392c-0.4,1,0.1,2.2,1.2,2.6
	c0.2,0.1,0.5,0.1,0.7,0.1c0.8,0,1.6-0.5,1.9-1.3c0.3-0.7,0.9-1.2,1.6-1.4c1.1-0.2,1.8-1.3,1.5-2.4c-0.3-1.1-1.3-1.8-2.4-1.5
	C-208.4,388.6-210.1,390-210.8,392z M-218.3,394.2c0,7.4,6,13.3,13.3,13.3s13.3-6,13.3-13.3c0-1.9-0.4-3.7-1.1-5.4
	c-2.3-0.8-4.8-1.5-7.5-1.9c2.4,1.5,4,4.2,4,7.3c0,4.8-3.9,8.7-8.7,8.7s-8.7-3.9-8.7-8.7c0-3,1.6-5.7,4-7.3c-2.7,0.4-5.2,1-7.5,1.9
	C-217.9,390.5-218.3,392.3-218.3,394.2z M-176,399.8c-1.9-2-6.1-5.8-11.9-8.9c0.2,1.1,0.3,2.2,0.3,3.3c0,9.6-7.8,17.3-17.3,17.3
	s-17.3-7.8-17.3-17.3c0-1.1,0.1-2.2,0.3-3.3c-5.9,3-10,6.9-11.9,8.9c3.3,3.5,14.1,13.2,28.8,13.2S-179.5,403.3-176,399.8z"/>
</svg>
